<mxfile host="app.diagrams.net" modified="2022-02-17T12:36:47.808Z" agent="5.0 (Windows NT 10.0; Win64; x64) AppleWebKit/537.36 (KHTML, like Gecko) Chrome/96.0.4664.45 Safari/537.36" etag="vGyK3E96LKhjBotQzPf0" version="16.5.6" type="github">
  <diagram id="hHeJLP0PUzBaDqHymoJT" name="Page-1">
    <mxGraphModel dx="1038" dy="1679" grid="1" gridSize="10" guides="1" tooltips="1" connect="1" arrows="1" fold="1" page="1" pageScale="1" pageWidth="850" pageHeight="1100" math="0" shadow="0">
      <root>
        <mxCell id="0" />
        <mxCell id="1" parent="0" />
        <mxCell id="pZsVB1XkkKVdpb39dQYi-1" value="IOT设备管理" style="rounded=0;whiteSpace=wrap;html=1;" parent="1" vertex="1">
          <mxGeometry x="40" y="-240" width="120" height="60" as="geometry" />
        </mxCell>
        <mxCell id="pZsVB1XkkKVdpb39dQYi-2" value="电表管理" style="rounded=0;whiteSpace=wrap;html=1;flipH=1;flipV=1;" parent="1" vertex="1">
          <mxGeometry x="200" y="-240" width="120" height="30" as="geometry" />
        </mxCell>
        <mxCell id="pZsVB1XkkKVdpb39dQYi-3" value="网关管理（瓦伦森DTU）" style="rounded=0;whiteSpace=wrap;html=1;flipH=1;flipV=1;" parent="1" vertex="1">
          <mxGeometry x="200" y="-200" width="120" height="30" as="geometry" />
        </mxCell>
        <mxCell id="pZsVB1XkkKVdpb39dQYi-4" value="奇享盒管理(三索)" style="rounded=0;whiteSpace=wrap;html=1;flipH=1;flipV=1;" parent="1" vertex="1">
          <mxGeometry x="200" y="-160" width="120" height="30" as="geometry" />
        </mxCell>
        <mxCell id="pZsVB1XkkKVdpb39dQYi-5" value="摄像头管理" style="rounded=0;whiteSpace=wrap;html=1;flipH=1;flipV=1;" parent="1" vertex="1">
          <mxGeometry x="200" y="-120" width="120" height="30" as="geometry" />
        </mxCell>
        <mxCell id="pZsVB1XkkKVdpb39dQYi-6" value="读表器管理" style="rounded=0;whiteSpace=wrap;html=1;flipH=1;flipV=1;" parent="1" vertex="1">
          <mxGeometry x="200" y="-80" width="120" height="30" as="geometry" />
        </mxCell>
        <mxCell id="pZsVB1XkkKVdpb39dQYi-9" value="团队管理" style="rounded=0;whiteSpace=wrap;html=1;" parent="1" vertex="1">
          <mxGeometry x="40" y="720" width="120" height="60" as="geometry" />
        </mxCell>
        <mxCell id="pZsVB1XkkKVdpb39dQYi-10" value="权限管理" style="rounded=0;whiteSpace=wrap;html=1;" parent="1" vertex="1">
          <mxGeometry x="40" y="960" width="120" height="60" as="geometry" />
        </mxCell>
        <mxCell id="pZsVB1XkkKVdpb39dQYi-11" value="人员管理" style="rounded=0;whiteSpace=wrap;html=1;flipH=1;flipV=1;" parent="1" vertex="1">
          <mxGeometry x="200" y="960" width="120" height="30" as="geometry" />
        </mxCell>
        <mxCell id="pZsVB1XkkKVdpb39dQYi-12" value="角色管理" style="rounded=0;whiteSpace=wrap;html=1;flipH=1;flipV=1;" parent="1" vertex="1">
          <mxGeometry x="200" y="1000" width="120" height="30" as="geometry" />
        </mxCell>
        <mxCell id="pZsVB1XkkKVdpb39dQYi-13" value="资源管理" style="rounded=0;whiteSpace=wrap;html=1;flipH=1;flipV=1;" parent="1" vertex="1">
          <mxGeometry x="200" y="1040" width="120" height="30" as="geometry" />
        </mxCell>
        <mxCell id="pZsVB1XkkKVdpb39dQYi-14" value="数据模型管理" style="rounded=0;whiteSpace=wrap;html=1;" parent="1" vertex="1">
          <mxGeometry x="40" y="1400" width="120" height="60" as="geometry" />
        </mxCell>
        <mxCell id="pZsVB1XkkKVdpb39dQYi-15" value="协议管理" style="rounded=0;whiteSpace=wrap;html=1;flipH=1;flipV=1;" parent="1" vertex="1">
          <mxGeometry x="200" y="1400" width="120" height="30" as="geometry" />
        </mxCell>
        <mxCell id="pZsVB1XkkKVdpb39dQYi-16" value="采集器模板管理" style="rounded=0;whiteSpace=wrap;html=1;flipH=1;flipV=1;" parent="1" vertex="1">
          <mxGeometry x="200" y="1440" width="120" height="30" as="geometry" />
        </mxCell>
        <mxCell id="pZsVB1XkkKVdpb39dQYi-17" value="IOT终端类型管理" style="rounded=0;whiteSpace=wrap;html=1;flipH=1;flipV=1;" parent="1" vertex="1">
          <mxGeometry x="200" y="1480" width="120" height="30" as="geometry" />
        </mxCell>
        <mxCell id="pZsVB1XkkKVdpb39dQYi-18" value="设备类型管理" style="rounded=0;whiteSpace=wrap;html=1;flipH=1;flipV=1;" parent="1" vertex="1">
          <mxGeometry x="200" y="1520" width="120" height="30" as="geometry" />
        </mxCell>
        <mxCell id="pZsVB1XkkKVdpb39dQYi-20" value="基础设备管理" style="rounded=0;whiteSpace=wrap;html=1;" parent="1" vertex="1">
          <mxGeometry x="40" y="1640" width="120" height="60" as="geometry" />
        </mxCell>
        <mxCell id="pZsVB1XkkKVdpb39dQYi-21" value="设备管理" style="rounded=0;whiteSpace=wrap;html=1;flipH=1;flipV=1;" parent="1" vertex="1">
          <mxGeometry x="200" y="1640" width="120" height="30" as="geometry" />
        </mxCell>
        <mxCell id="pZsVB1XkkKVdpb39dQYi-24" value="&lt;ol&gt;&lt;li&gt;电表编号&lt;/li&gt;&lt;li&gt;电表名称&lt;/li&gt;&lt;li&gt;绑定协议&lt;/li&gt;&lt;li&gt;授权团队&lt;/li&gt;&lt;li&gt;最近数据上报时间&lt;/li&gt;&lt;li&gt;查看：最近上报数据情况&lt;/li&gt;&lt;li&gt;编辑：绑定协议，电表名称（默认电表编号），授权团队&lt;/li&gt;&lt;/ol&gt;" style="rounded=1;whiteSpace=wrap;html=1;align=left;" parent="1" vertex="1">
          <mxGeometry x="400" y="-240" width="200" height="160" as="geometry" />
        </mxCell>
        <mxCell id="pZsVB1XkkKVdpb39dQYi-26" value="" style="endArrow=classic;html=1;rounded=0;entryX=0;entryY=0.5;entryDx=0;entryDy=0;exitX=1;exitY=0.5;exitDx=0;exitDy=0;" parent="1" source="pZsVB1XkkKVdpb39dQYi-2" target="pZsVB1XkkKVdpb39dQYi-24" edge="1">
          <mxGeometry width="50" height="50" relative="1" as="geometry">
            <mxPoint x="440" y="110" as="sourcePoint" />
            <mxPoint x="490" y="60" as="targetPoint" />
          </mxGeometry>
        </mxCell>
        <mxCell id="pZsVB1XkkKVdpb39dQYi-27" value="&lt;ol&gt;&lt;li&gt;网关编号&lt;/li&gt;&lt;li&gt;网关名称&lt;/li&gt;&lt;li&gt;最近数据上报时间&lt;/li&gt;&lt;li&gt;查看：最近上报数据情况&lt;/li&gt;&lt;li&gt;编辑：网关名称（默认电表编号）&lt;/li&gt;&lt;/ol&gt;" style="rounded=1;whiteSpace=wrap;html=1;align=left;" parent="1" vertex="1">
          <mxGeometry x="400" y="-40" width="200" height="120" as="geometry" />
        </mxCell>
        <mxCell id="pZsVB1XkkKVdpb39dQYi-28" value="" style="endArrow=classic;html=1;rounded=0;exitX=1;exitY=0.5;exitDx=0;exitDy=0;entryX=0;entryY=0.5;entryDx=0;entryDy=0;" parent="1" source="pZsVB1XkkKVdpb39dQYi-3" target="pZsVB1XkkKVdpb39dQYi-27" edge="1">
          <mxGeometry width="50" height="50" relative="1" as="geometry">
            <mxPoint x="440" y="100" as="sourcePoint" />
            <mxPoint x="490" y="50" as="targetPoint" />
          </mxGeometry>
        </mxCell>
        <mxCell id="pZsVB1XkkKVdpb39dQYi-29" value="&lt;ol&gt;&lt;li&gt;终端编号&lt;/li&gt;&lt;li&gt;终端名称&lt;/li&gt;&lt;li&gt;盒子状态：在线，离线&lt;/li&gt;&lt;li&gt;系统状态&lt;/li&gt;&lt;li&gt;安装位置&lt;/li&gt;&lt;li&gt;企业名称&lt;/li&gt;&lt;li&gt;企业ID&lt;/li&gt;&lt;li&gt;SIM卡号码&lt;/li&gt;&lt;li&gt;创建时间&lt;/li&gt;&lt;li&gt;最近数据上报时间&lt;/li&gt;&lt;li&gt;操作：盒子详情，编辑，报废，异常详情&lt;/li&gt;&lt;/ol&gt;" style="rounded=1;whiteSpace=wrap;html=1;align=left;" parent="1" vertex="1">
          <mxGeometry x="400" y="120" width="200" height="200" as="geometry" />
        </mxCell>
        <mxCell id="pZsVB1XkkKVdpb39dQYi-30" value="&lt;ol&gt;&lt;li&gt;设备编号&lt;/li&gt;&lt;li&gt;安装位置&lt;/li&gt;&lt;li&gt;&lt;span&gt;设备状态：在线，离线&lt;/span&gt;&lt;/li&gt;&lt;li&gt;&lt;span&gt;授权团队&lt;/span&gt;&lt;br&gt;&lt;/li&gt;&lt;li&gt;&lt;span&gt;团队ID&lt;/span&gt;&lt;/li&gt;&lt;/ol&gt;" style="rounded=1;whiteSpace=wrap;html=1;align=left;" parent="1" vertex="1">
          <mxGeometry x="400" y="360" width="200" height="120" as="geometry" />
        </mxCell>
        <mxCell id="pZsVB1XkkKVdpb39dQYi-31" value="" style="endArrow=classic;html=1;rounded=0;exitX=1;exitY=0.5;exitDx=0;exitDy=0;entryX=0;entryY=0.5;entryDx=0;entryDy=0;" parent="1" source="pZsVB1XkkKVdpb39dQYi-4" target="pZsVB1XkkKVdpb39dQYi-29" edge="1">
          <mxGeometry width="50" height="50" relative="1" as="geometry">
            <mxPoint x="440" y="350" as="sourcePoint" />
            <mxPoint x="490" y="300" as="targetPoint" />
          </mxGeometry>
        </mxCell>
        <mxCell id="pZsVB1XkkKVdpb39dQYi-32" value="" style="endArrow=classic;html=1;rounded=0;exitX=1;exitY=0.5;exitDx=0;exitDy=0;entryX=0;entryY=0.5;entryDx=0;entryDy=0;" parent="1" source="pZsVB1XkkKVdpb39dQYi-5" target="pZsVB1XkkKVdpb39dQYi-30" edge="1">
          <mxGeometry width="50" height="50" relative="1" as="geometry">
            <mxPoint x="440" y="440" as="sourcePoint" />
            <mxPoint x="490" y="390" as="targetPoint" />
          </mxGeometry>
        </mxCell>
        <mxCell id="pZsVB1XkkKVdpb39dQYi-33" value="&lt;ol&gt;&lt;li&gt;设备编号&lt;/li&gt;&lt;li&gt;设备名称&lt;/li&gt;&lt;li&gt;企业名称&lt;/li&gt;&lt;li&gt;最近数据上报&lt;/li&gt;&lt;li&gt;最新读数&lt;/li&gt;&lt;li&gt;操作&lt;/li&gt;&lt;/ol&gt;" style="rounded=1;whiteSpace=wrap;html=1;align=left;" parent="1" vertex="1">
          <mxGeometry x="400" y="520" width="200" height="120" as="geometry" />
        </mxCell>
        <mxCell id="pZsVB1XkkKVdpb39dQYi-34" value="" style="endArrow=classic;html=1;rounded=0;exitX=1;exitY=0.5;exitDx=0;exitDy=0;entryX=0;entryY=0.5;entryDx=0;entryDy=0;" parent="1" source="pZsVB1XkkKVdpb39dQYi-6" target="pZsVB1XkkKVdpb39dQYi-33" edge="1">
          <mxGeometry width="50" height="50" relative="1" as="geometry">
            <mxPoint x="330" y="230" as="sourcePoint" />
            <mxPoint x="490" y="290" as="targetPoint" />
          </mxGeometry>
        </mxCell>
        <mxCell id="pZsVB1XkkKVdpb39dQYi-35" value="&lt;ol&gt;&lt;li&gt;团队名称&lt;/li&gt;&lt;li&gt;团队ID&lt;/li&gt;&lt;li&gt;团队人数&lt;/li&gt;&lt;li&gt;增值服务：自定义告警，专家咨询，视频监控&lt;/li&gt;&lt;li&gt;操作：增值服务功能，当前开通状态，开始使用日期，结束使用日期，剩余使用天数，操作&lt;/li&gt;&lt;/ol&gt;" style="rounded=1;whiteSpace=wrap;html=1;align=left;" parent="1" vertex="1">
          <mxGeometry x="400" y="720" width="200" height="160" as="geometry" />
        </mxCell>
        <mxCell id="pZsVB1XkkKVdpb39dQYi-36" value="&lt;ol&gt;&lt;li&gt;姓名&lt;/li&gt;&lt;li&gt;手机号码&lt;/li&gt;&lt;li&gt;角色：销售，安装团队管理员，管理员，运营专员，普通用户，超级管理员&lt;/li&gt;&lt;li&gt;创建时间&lt;/li&gt;&lt;li&gt;最近登录时间&lt;/li&gt;&lt;li&gt;状态&lt;/li&gt;&lt;li&gt;操作：查看，编辑，停用，删除&lt;/li&gt;&lt;/ol&gt;" style="rounded=1;whiteSpace=wrap;html=1;align=left;" parent="1" vertex="1">
          <mxGeometry x="400" y="960" width="200" height="160" as="geometry" />
        </mxCell>
        <mxCell id="pZsVB1XkkKVdpb39dQYi-37" value="" style="endArrow=classic;html=1;rounded=0;entryX=0;entryY=0.5;entryDx=0;entryDy=0;exitX=1;exitY=0.5;exitDx=0;exitDy=0;" parent="1" source="pZsVB1XkkKVdpb39dQYi-11" target="pZsVB1XkkKVdpb39dQYi-36" edge="1">
          <mxGeometry width="50" height="50" relative="1" as="geometry">
            <mxPoint x="290" y="1170" as="sourcePoint" />
            <mxPoint x="340" y="1120" as="targetPoint" />
          </mxGeometry>
        </mxCell>
        <mxCell id="pZsVB1XkkKVdpb39dQYi-38" value="&lt;ol&gt;&lt;li&gt;角色：销售，安装团队管理员，管理员，运营专员，普通用户，超级管理员&lt;/li&gt;&lt;li&gt;人数&lt;/li&gt;&lt;li&gt;状态：启用，停用&lt;/li&gt;&lt;li&gt;操作：查看，编辑，禁用，删除&lt;/li&gt;&lt;/ol&gt;" style="rounded=1;whiteSpace=wrap;html=1;align=left;" parent="1" vertex="1">
          <mxGeometry x="400" y="1160" width="200" height="160" as="geometry" />
        </mxCell>
        <mxCell id="9-oozEnRFw-sE9CMH493-1" value="" style="endArrow=classic;html=1;rounded=0;entryX=0;entryY=0.5;entryDx=0;entryDy=0;exitX=1;exitY=0.5;exitDx=0;exitDy=0;" edge="1" parent="1" source="pZsVB1XkkKVdpb39dQYi-12" target="pZsVB1XkkKVdpb39dQYi-38">
          <mxGeometry width="50" height="50" relative="1" as="geometry">
            <mxPoint x="330" y="985" as="sourcePoint" />
            <mxPoint x="410" y="1050" as="targetPoint" />
          </mxGeometry>
        </mxCell>
        <mxCell id="9-oozEnRFw-sE9CMH493-4" value="&lt;ol&gt;&lt;li&gt;485协议名称&lt;/li&gt;&lt;li&gt;协议编码&lt;/li&gt;&lt;li&gt;操作&lt;/li&gt;&lt;/ol&gt;" style="rounded=1;whiteSpace=wrap;html=1;align=left;" vertex="1" parent="1">
          <mxGeometry x="400" y="1400" width="200" height="80" as="geometry" />
        </mxCell>
        <mxCell id="9-oozEnRFw-sE9CMH493-5" value="&lt;ol&gt;&lt;li&gt;485协议名称&lt;/li&gt;&lt;li&gt;协议编码&lt;/li&gt;&lt;li&gt;操作&lt;/li&gt;&lt;/ol&gt;" style="rounded=1;whiteSpace=wrap;html=1;align=left;" vertex="1" parent="1">
          <mxGeometry x="640" y="1400" width="200" height="80" as="geometry" />
        </mxCell>
        <mxCell id="9-oozEnRFw-sE9CMH493-6" value="&lt;ol&gt;&lt;li&gt;485采集器模板名称&lt;/li&gt;&lt;li&gt;操作&lt;/li&gt;&lt;/ol&gt;" style="rounded=1;whiteSpace=wrap;html=1;align=left;" vertex="1" parent="1">
          <mxGeometry x="400" y="1520" width="200" height="80" as="geometry" />
        </mxCell>
        <mxCell id="9-oozEnRFw-sE9CMH493-7" value="&lt;ol&gt;&lt;li&gt;终端类型名称&lt;/li&gt;&lt;li&gt;编号前缀&lt;/li&gt;&lt;li&gt;可用采集器模板&lt;/li&gt;&lt;li&gt;可用协议&lt;/li&gt;&lt;li&gt;操作&lt;/li&gt;&lt;/ol&gt;" style="rounded=1;whiteSpace=wrap;html=1;align=left;" vertex="1" parent="1">
          <mxGeometry x="400" y="1640" width="200" height="80" as="geometry" />
        </mxCell>
        <mxCell id="9-oozEnRFw-sE9CMH493-8" value="" style="endArrow=classic;html=1;rounded=0;exitX=1;exitY=0.5;exitDx=0;exitDy=0;entryX=0;entryY=0.5;entryDx=0;entryDy=0;" edge="1" parent="1" source="pZsVB1XkkKVdpb39dQYi-15" target="9-oozEnRFw-sE9CMH493-4">
          <mxGeometry width="50" height="50" relative="1" as="geometry">
            <mxPoint x="400" y="1510" as="sourcePoint" />
            <mxPoint x="400" y="1440" as="targetPoint" />
          </mxGeometry>
        </mxCell>
        <mxCell id="9-oozEnRFw-sE9CMH493-10" value="" style="endArrow=classic;html=1;rounded=0;exitX=1;exitY=0.5;exitDx=0;exitDy=0;entryX=0;entryY=0.5;entryDx=0;entryDy=0;" edge="1" parent="1" source="pZsVB1XkkKVdpb39dQYi-16" target="9-oozEnRFw-sE9CMH493-6">
          <mxGeometry width="50" height="50" relative="1" as="geometry">
            <mxPoint x="330" y="1425" as="sourcePoint" />
            <mxPoint x="410" y="1450" as="targetPoint" />
          </mxGeometry>
        </mxCell>
        <mxCell id="9-oozEnRFw-sE9CMH493-11" value="" style="endArrow=classic;html=1;rounded=0;exitX=1;exitY=0.5;exitDx=0;exitDy=0;entryX=0;entryY=0.5;entryDx=0;entryDy=0;" edge="1" parent="1" source="pZsVB1XkkKVdpb39dQYi-17" target="9-oozEnRFw-sE9CMH493-7">
          <mxGeometry width="50" height="50" relative="1" as="geometry">
            <mxPoint x="400" y="1510" as="sourcePoint" />
            <mxPoint x="450" y="1460" as="targetPoint" />
          </mxGeometry>
        </mxCell>
      </root>
    </mxGraphModel>
  </diagram>
</mxfile>
